<svg width="472" height="183" viewBox="0 0 472 183" fill="none" xmlns="http://www.w3.org/2000/svg">
<path d="M129.572 63.6161V65.1921H126.993C124.342 65.1921 122.194 65.3896 120.54 65.7832C118.885 66.1781 117.33 66.8368 115.875 67.7541C113.623 69.2013 111.971 71.0059 110.913 73.173C109.853 75.3413 109.058 77.2134 108.532 78.7894L87.0934 165.502H58.1116C51.0952 146.848 44.4156 130.162 38.0629 115.446C35.4148 109.14 32.6691 102.998 29.8258 97.0195C26.9787 91.042 24.268 85.688 21.6863 80.9577C19.1059 76.2287 16.7246 72.4194 14.5398 69.5275C12.3563 66.6393 10.5358 65.1921 9.08096 65.1921H7.69121V63.6161H13.8449C21.3884 63.6161 27.8062 63.9461 33.0998 64.6009C38.3909 65.2596 42.9908 66.4419 46.8959 68.149C50.7972 69.8574 54.0725 72.1232 56.7218 74.9477C59.3686 77.7746 61.7499 81.3526 63.8684 85.688L89.6726 146.191L106.546 79.1856C107.208 76.2974 107.539 74.3265 107.539 73.273C107.539 71.8295 107.341 70.7785 106.944 70.1199C106.546 69.4638 106.214 68.8726 105.951 68.3465C105.156 66.9018 103.997 66.0144 102.478 65.6857C100.955 65.3596 99.5999 65.1933 98.408 65.1933H94.4391V63.6174H129.572V63.6161Z" fill="#818479"/>
<path d="M194.696 163.926V165.503H125.021V163.926H140.108V65.1921H125.021V63.6161C128.725 63.6161 133.159 63.5512 138.321 63.4187C143.482 63.29 148.674 63.0588 153.904 62.7288C159.13 62.4026 164.059 61.9752 168.692 61.4478C173.323 60.9242 177.03 60.2656 179.807 59.477V163.926H194.696Z" fill="#818479"/>
<path d="M248.289 167.037C249.611 170.584 251.333 173.442 253.451 175.609C255.567 177.777 259.07 179.29 261.452 180.142C263.834 180.998 266.148 181.423 268.401 181.423V183H244.915C238.431 183 232.937 182.541 228.44 181.62C223.939 180.703 220.3 179.126 217.523 176.89C214.744 174.658 212.758 171.669 211.567 167.923C210.375 164.179 209.781 159.418 209.781 153.636V149.497V65.1933H194.892V63.6174H201.243C206.802 63.6174 212.192 62.2377 217.422 59.4782C222.648 56.72 227.246 53.3045 231.215 49.2303C235.187 45.1598 238.394 40.8544 240.845 36.3216C243.291 31.7887 244.517 27.817 244.517 24.3989H246.304V63.6174H263.772V65.1933H246.304V153.44C246.305 158.957 246.965 163.49 248.289 167.037Z" fill="#818479"/>
<path d="M338.607 163.926V165.503H268.931V163.926H284.018V65.1921H268.931V63.6161C272.635 63.6161 277.07 63.5512 282.232 63.4187C287.393 63.29 292.585 63.0588 297.814 62.7288C303.04 62.4026 307.97 61.9752 312.602 61.4478C317.233 60.9242 320.941 60.2656 323.718 59.477V163.926H338.607Z" fill="#818479"/>
<path d="M472 165.503H454.532C448.045 165.503 442.587 164.75 438.154 163.238C433.719 161.728 430.115 159.626 427.335 156.931C424.556 154.238 422.571 151.118 421.379 147.571C420.187 144.023 419.593 140.213 419.593 136.139V81.3539C419.593 78.7269 419.295 76.0999 418.699 73.4705C418.104 70.8447 417.077 68.5439 415.624 66.5731C414.829 65.6557 413.802 65.0309 412.546 64.7009C411.286 64.3748 410.065 64.2085 408.873 64.2085C407.681 64.2085 406.555 64.5722 405.499 65.2933C404.438 66.0169 403.445 66.903 402.521 67.954C401.329 69.1363 400.339 70.781 399.544 72.8818C398.751 74.9851 398.055 77.251 397.461 79.6805C396.863 82.1125 396.434 84.5083 396.17 86.8728C395.902 89.2373 395.773 91.2082 395.773 92.7841V163.928H410.659V165.505H340.39V163.928H355.279V65.1933H340.192V63.6174C343.895 63.6174 348.395 63.5524 353.691 63.42C358.981 63.2912 364.276 63.06 369.57 62.7301C374.862 62.4039 379.858 61.9765 384.556 61.4491C389.252 60.9254 392.993 60.2668 395.773 59.4782V74.4565C396.83 72.2232 397.955 70.3848 399.147 68.9388C400.339 67.4941 401.927 66.0507 403.911 64.6035C407.088 61.9765 410.428 60.0706 413.935 58.8883C417.44 57.7061 421.18 57.1137 425.152 57.1137C429.121 57.1137 433.355 57.4436 437.856 58.0985C442.352 58.7571 446.323 60.2018 449.767 62.4339C453.205 64.6697 455.851 67.7553 457.707 71.6958C458.367 73.143 458.929 74.6215 459.395 76.1299C459.857 77.6409 460.088 79.1843 460.088 80.7615V138.701C460.088 146.454 460.982 152.595 462.769 157.128C464.555 161.66 467.632 163.926 472 163.926V165.503Z" fill="#818479"/>
<path d="M322.253 35.8267C321.186 34.172 319.734 32.7223 317.898 31.48C316.06 30.2378 313.928 29.263 311.499 28.5531C309.069 27.8432 306.493 27.4883 303.769 27.4883C301.041 27.4883 298.464 27.8432 296.038 28.5531C293.608 29.263 291.477 30.2378 289.641 31.48C287.802 32.7223 286.352 34.172 285.285 35.8267C284.22 37.4851 283.687 39.2585 283.687 41.1494C283.687 43.0427 284.221 44.8161 285.285 46.4721C286.352 48.1292 287.802 49.5764 289.641 50.8187C291.477 52.061 293.609 53.0357 296.038 53.7456C298.464 54.4555 301.042 54.8104 303.769 54.8104C306.493 54.8104 309.069 54.4555 311.499 53.7456C313.927 53.0357 316.059 52.061 317.898 50.8187C319.734 49.5764 321.186 48.1305 322.253 46.4721C323.319 44.8174 323.852 43.0427 323.852 41.1494C323.852 39.2585 323.319 37.4851 322.253 35.8267Z" fill="#818479"/>
<path d="M10.4757 13.6361C13.0048 12.5363 15.7104 11.9864 18.5951 11.9864C23.6307 11.9864 27.9339 13.781 31.5072 17.3703C35.0805 20.9596 36.8659 25.2862 36.8659 30.3502C36.8659 35.5005 35.0905 39.8796 31.5398 43.4901C27.989 47.1019 23.7159 48.9066 18.724 48.9066C15.9045 48.9066 13.3115 48.3354 10.944 47.1919C8.57637 46.0496 6.43541 44.3125 4.51981 41.9842V61.5978H0C0 61.6403 0 50.54 0 28.2982C0.388128 25.2 1.55001 22.0494 3.4869 18.8438C5.61784 16.473 7.94661 14.7371 10.4757 13.6361ZM8.26462 20.4147C5.55273 23.1492 4.1968 26.5585 4.1968 30.6389C4.1968 33.2884 4.79902 35.6867 6.00472 37.8338C7.20917 39.9808 8.93071 41.6792 11.1693 42.929C13.4067 44.1787 15.7743 44.8036 18.2708 44.8036C20.7235 44.8036 23.0323 44.1787 25.1945 42.929C27.3568 41.6792 29.0796 39.9158 30.3591 37.6413C31.6387 35.3667 32.2797 32.9897 32.2797 30.5102C32.2797 27.9895 31.645 25.6174 30.3754 23.3954C29.1058 21.1733 27.4006 19.4374 25.2596 18.1877C23.1187 16.9379 20.7674 16.313 18.2057 16.313C14.2894 16.313 10.9765 17.6803 8.26462 20.4147Z" fill="#FDC758"/>
<path d="M45.292 0H49.8757V48.7466H45.292V0Z" fill="#FDC758"/>
<path d="M76.0243 11.8589C81.4693 11.8589 85.9879 13.8135 89.5825 17.724C92.8966 21.292 94.5543 25.5337 94.5543 30.4477C94.5968 42.5828 94.5968 48.7479 94.5543 48.9403C92.4884 48.9403 90.8846 48.9403 89.744 48.9403C89.744 48.7904 89.744 46.1309 89.744 40.9594C87.2261 45.6185 82.6525 48.2242 76.0243 48.7791C70.6005 48.7791 66.1733 46.947 62.7403 43.2827C59.3072 39.6184 57.5919 35.3405 57.5919 30.4465C57.5919 25.5749 59.2158 21.3445 62.4661 17.7552C66.0594 13.8235 70.5779 11.8589 76.0243 11.8589ZM76.0243 16.2805C72.2582 16.2805 69.0192 17.6703 66.3073 20.4472C63.5954 23.2254 62.2395 26.5798 62.2395 30.5102C62.2395 33.0535 62.9331 35.4992 64.3216 37.85C65.7101 40.2008 68.0614 42.1879 71.3755 43.8113C79.6827 45.6497 85.591 41.8992 89.0979 32.5623C89.292 29.5717 88.969 26.7085 88.1301 23.9728C87.5279 22.7343 86.6978 21.5582 85.6448 20.4472C82.9968 17.6703 79.7891 16.2805 76.0243 16.2805Z" fill="#FDC758"/>
<path d="M103.366 35.4142L103.301 31.665C103.236 29.8279 103.311 28.2682 103.528 26.9859C104 22.948 105.034 19.9885 106.626 18.1077C108.175 16.463 109.758 15.192 111.371 14.2934C114.04 13.1612 117.084 12.6275 120.508 12.6912C123.176 12.6912 125.646 13.3599 127.916 14.6946C130.186 16.0293 131.806 17.824 132.774 20.0785C133.743 22.3331 134.227 25.8636 134.227 30.6702V48.7454H129.707V31.9849C129.707 27.9257 129.535 25.2125 129.19 23.844C128.652 21.5158 127.586 19.8648 125.995 18.8925C124.403 17.9202 122.045 17.4341 118.925 17.4341C116.17 17.4341 113.717 18.2251 111.566 19.8048C109.413 21.387 108.412 23.5441 108.563 26.2786C108.154 28.0307 107.95 31.2251 107.95 35.8617V48.7454H103.366V35.4142Z" fill="#FDC758"/>
<path d="M143.331 12.755H147.914V29.1642C147.914 33.1809 148.13 35.9379 148.56 37.4326C149.206 39.5909 150.443 41.2943 152.273 42.5441C154.102 43.7938 156.297 44.4187 158.858 44.4187C161.397 44.4187 163.55 43.8101 165.315 42.5928C167.079 41.3743 168.295 39.7721 168.963 37.785C169.437 36.439 169.673 33.5658 169.673 29.1642V12.755H174.321V30.029C174.321 34.8793 173.745 38.5274 172.594 40.9732C171.444 43.4202 169.726 45.3323 167.446 46.7095C165.165 48.088 162.303 48.7766 158.86 48.7766C155.394 48.7766 152.511 48.088 150.208 46.7095C147.906 45.331 146.184 43.3989 145.043 40.9082C143.902 38.4199 143.332 34.6744 143.332 29.6754L143.331 12.755Z" fill="#FDC758"/>
<path d="M184.361 35.4142L184.296 31.665C184.231 29.8279 184.306 28.2682 184.522 26.9859C184.994 22.948 186.029 19.9885 187.621 18.1077C189.17 16.463 190.752 15.192 192.366 14.2934C195.034 13.1612 198.079 12.6275 201.502 12.6912C204.17 12.6912 206.641 13.3599 208.911 14.6946C211.18 16.0293 212.801 17.824 213.768 20.0785C214.737 22.3331 215.222 25.8636 215.222 30.6702V48.7454H210.702V31.9849C210.702 27.9257 210.529 25.2125 210.185 23.844C209.647 21.5158 208.581 19.8648 206.99 18.8925C205.397 17.9202 203.04 17.4341 199.92 17.4341C197.165 17.4341 194.711 18.2251 192.56 19.8048C190.408 21.387 189.406 23.5441 189.558 26.2786C189.149 28.0307 188.944 31.2251 188.944 35.8617V48.7454H184.361V35.4142Z" fill="#FDC758"/>
</svg>
