<svg xmlns="http://www.w3.org/2000/svg" xmlns:xlink="http://www.w3.org/1999/xlink" width="500" zoomAndPan="magnify" viewBox="0 0 375 374.999991" height="500" preserveAspectRatio="xMidYMid meet" version="1.0"><defs><g/><clipPath id="f6b665d73a"><path d="M 80.304688 110.914062 L 260 110.914062 L 260 128 L 80.304688 128 Z M 80.304688 110.914062 " clip-rule="nonzero"/></clipPath><clipPath id="048890c320"><path d="M 89 110.914062 L 276.804688 110.914062 L 276.804688 283.414062 L 89 283.414062 Z M 89 110.914062 " clip-rule="nonzero"/></clipPath><clipPath id="3bc2a530c1"><path d="M 97 110.914062 L 272 110.914062 L 272 283 L 97 283 Z M 97 110.914062 " clip-rule="nonzero"/></clipPath></defs><g clip-path="url(#f6b665d73a)"><path fill="#770e12" d="M 259.933594 118.46875 L 259.933594 127.347656 L 80.304688 127.347656 L 80.304688 118.46875 C 80.304688 114.351562 83.679688 110.976562 87.847656 110.976562 L 252.441406 110.976562 C 256.558594 110.976562 259.933594 114.351562 259.933594 118.46875 Z M 259.933594 118.46875 " fill-opacity="1" fill-rule="nonzero"/></g><g clip-path="url(#048890c320)"><path fill="#ed1c24" d="M 276.804688 118.46875 L 276.804688 275.511719 C 276.804688 278.933594 274.621094 281.5625 271.84375 282.554688 C 271.496094 282.652344 271.199219 282.753906 270.851562 282.851562 C 268.863281 283.296875 266.683594 282.902344 264.796875 281.511719 L 191.503906 226.949219 C 188.824219 224.964844 185.152344 224.964844 182.523438 226.949219 L 109.183594 281.5625 C 107.148438 283.050781 104.769531 283.347656 102.683594 282.800781 C 102.335938 282.703125 102.039062 282.605469 101.691406 282.453125 C 99.109375 281.363281 97.175781 278.832031 97.175781 275.558594 L 97.175781 118.46875 C 97.175781 114.351562 93.800781 110.976562 89.632812 110.976562 L 269.261719 110.976562 C 273.429688 110.976562 276.804688 114.351562 276.804688 118.46875 Z M 276.804688 118.46875 " fill-opacity="1" fill-rule="nonzero"/></g><g clip-path="url(#3bc2a530c1)"><path fill="#ff99a5" d="M 99.507812 110.976562 L 97.523438 110.976562 C 99.953125 112.019531 101.691406 114.550781 101.691406 117.476562 L 101.691406 282.40625 C 102.039062 282.554688 102.335938 282.652344 102.683594 282.753906 L 102.683594 117.476562 C 102.683594 114.796875 101.441406 112.417969 99.507812 110.976562 Z M 268.667969 110.976562 L 266.683594 110.976562 C 269.113281 112.019531 270.851562 114.550781 270.851562 117.476562 L 270.851562 282.902344 C 271.199219 282.800781 271.496094 282.753906 271.84375 282.605469 L 271.84375 117.476562 C 271.84375 114.796875 270.601562 112.417969 268.667969 110.976562 Z M 268.667969 110.976562 " fill-opacity="1" fill-rule="nonzero"/></g><g fill="#ffffff" fill-opacity="1"><g transform="translate(118.706914, 169.699983)"><g><path d="M 8.234375 0 L 4.625 -11.765625 L 4.53125 -11.765625 C 4.664062 -9.367188 4.734375 -7.769531 4.734375 -6.96875 L 4.734375 0 L 1.890625 0 L 1.890625 -14.984375 L 6.21875 -14.984375 L 9.765625 -3.53125 L 9.828125 -3.53125 L 13.59375 -14.984375 L 17.90625 -14.984375 L 17.90625 0 L 14.953125 0 L 14.953125 -7.09375 C 14.953125 -7.425781 14.957031 -7.8125 14.96875 -8.25 C 14.976562 -8.6875 15.023438 -9.847656 15.109375 -11.734375 L 15.015625 -11.734375 L 11.140625 0 Z M 8.234375 0 "/></g></g><g transform="translate(138.507206, 169.699983)"><g><path d="M 6.390625 -9.453125 C 5.722656 -9.453125 5.203125 -9.238281 4.828125 -8.8125 C 4.453125 -8.394531 4.238281 -7.800781 4.1875 -7.03125 L 8.578125 -7.03125 C 8.554688 -7.800781 8.351562 -8.394531 7.96875 -8.8125 C 7.582031 -9.238281 7.054688 -9.453125 6.390625 -9.453125 Z M 6.828125 0.203125 C 4.984375 0.203125 3.539062 -0.300781 2.5 -1.3125 C 1.457031 -2.332031 0.9375 -3.78125 0.9375 -5.65625 C 0.9375 -7.570312 1.414062 -9.050781 2.375 -10.09375 C 3.34375 -11.144531 4.675781 -11.671875 6.375 -11.671875 C 7.988281 -11.671875 9.242188 -11.207031 10.140625 -10.28125 C 11.046875 -9.363281 11.5 -8.09375 11.5 -6.46875 L 11.5 -4.953125 L 4.109375 -4.953125 C 4.140625 -4.066406 4.398438 -3.375 4.890625 -2.875 C 5.390625 -2.375 6.082031 -2.125 6.96875 -2.125 C 7.664062 -2.125 8.320312 -2.191406 8.9375 -2.328125 C 9.550781 -2.472656 10.191406 -2.707031 10.859375 -3.03125 L 10.859375 -0.609375 C 10.304688 -0.328125 9.71875 -0.125 9.09375 0 C 8.476562 0.132812 7.722656 0.203125 6.828125 0.203125 Z M 6.828125 0.203125 "/></g></g><g transform="translate(150.914431, 169.699983)"><g><path d="M 4.765625 0 L 1.640625 0 L 1.640625 -15.953125 L 4.765625 -15.953125 Z M 4.765625 0 "/></g></g><g transform="translate(157.323122, 169.699983)"><g><path d="M 12.21875 0 L 9.09375 0 L 9.09375 -6.703125 C 9.09375 -8.347656 8.476562 -9.171875 7.25 -9.171875 C 6.375 -9.171875 5.738281 -8.875 5.34375 -8.28125 C 4.957031 -7.6875 4.765625 -6.722656 4.765625 -5.390625 L 4.765625 0 L 1.640625 0 L 1.640625 -15.953125 L 4.765625 -15.953125 L 4.765625 -12.703125 C 4.765625 -12.453125 4.742188 -11.859375 4.703125 -10.921875 L 4.625 -10 L 4.78125 -10 C 5.476562 -11.113281 6.585938 -11.671875 8.109375 -11.671875 C 9.453125 -11.671875 10.472656 -11.304688 11.171875 -10.578125 C 11.867188 -9.859375 12.21875 -8.820312 12.21875 -7.46875 Z M 12.21875 0 "/></g></g><g transform="translate(171.124879, 169.699983)"><g><path d="M 4.125 -5.75 C 4.125 -4.613281 4.3125 -3.753906 4.6875 -3.171875 C 5.0625 -2.597656 5.671875 -2.3125 6.515625 -2.3125 C 7.347656 -2.3125 7.945312 -2.597656 8.3125 -3.171875 C 8.675781 -3.753906 8.859375 -4.613281 8.859375 -5.75 C 8.859375 -6.882812 8.671875 -7.734375 8.296875 -8.296875 C 7.929688 -8.867188 7.328125 -9.15625 6.484375 -9.15625 C 5.648438 -9.15625 5.046875 -8.875 4.671875 -8.3125 C 4.304688 -7.75 4.125 -6.894531 4.125 -5.75 Z M 12.0625 -5.75 C 12.0625 -3.882812 11.566406 -2.425781 10.578125 -1.375 C 9.597656 -0.320312 8.226562 0.203125 6.46875 0.203125 C 5.363281 0.203125 4.390625 -0.0351562 3.546875 -0.515625 C 2.710938 -0.992188 2.066406 -1.6875 1.609375 -2.59375 C 1.160156 -3.5 0.9375 -4.550781 0.9375 -5.75 C 0.9375 -7.625 1.425781 -9.078125 2.40625 -10.109375 C 3.382812 -11.148438 4.757812 -11.671875 6.53125 -11.671875 C 7.632812 -11.671875 8.601562 -11.429688 9.4375 -10.953125 C 10.28125 -10.484375 10.925781 -9.800781 11.375 -8.90625 C 11.832031 -8.007812 12.0625 -6.957031 12.0625 -5.75 Z M 12.0625 -5.75 "/></g></g><g transform="translate(184.126832, 169.699983)"><g><path d="M 8.046875 -11.671875 C 8.460938 -11.671875 8.8125 -11.644531 9.09375 -11.59375 L 8.859375 -8.65625 C 8.609375 -8.71875 8.300781 -8.75 7.9375 -8.75 C 6.9375 -8.75 6.15625 -8.492188 5.59375 -7.984375 C 5.039062 -7.472656 4.765625 -6.753906 4.765625 -5.828125 L 4.765625 0 L 1.640625 0 L 1.640625 -11.46875 L 4.015625 -11.46875 L 4.46875 -9.53125 L 4.625 -9.53125 C 4.976562 -10.175781 5.457031 -10.691406 6.0625 -11.078125 C 6.664062 -11.472656 7.328125 -11.671875 8.046875 -11.671875 Z M 8.046875 -11.671875 "/></g></g><g transform="translate(193.662964, 169.699983)"><g/></g><g transform="translate(199.118042, 169.699983)"><g><path d="M 6.296875 0.203125 C 2.722656 0.203125 0.9375 -1.753906 0.9375 -5.671875 C 0.9375 -7.617188 1.421875 -9.101562 2.390625 -10.125 C 3.367188 -11.15625 4.765625 -11.671875 6.578125 -11.671875 C 7.898438 -11.671875 9.085938 -11.414062 10.140625 -10.90625 L 9.21875 -8.484375 C 8.726562 -8.679688 8.269531 -8.84375 7.84375 -8.96875 C 7.414062 -9.09375 6.992188 -9.15625 6.578125 -9.15625 C 4.941406 -9.15625 4.125 -8 4.125 -5.6875 C 4.125 -3.445312 4.941406 -2.328125 6.578125 -2.328125 C 7.171875 -2.328125 7.722656 -2.40625 8.234375 -2.5625 C 8.753906 -2.726562 9.269531 -2.984375 9.78125 -3.328125 L 9.78125 -0.640625 C 9.28125 -0.328125 8.769531 -0.109375 8.25 0.015625 C 7.726562 0.140625 7.078125 0.203125 6.296875 0.203125 Z M 6.296875 0.203125 "/></g></g><g transform="translate(209.915404, 169.699983)"><g><path d="M 9.765625 0 L 9.34375 -1.46875 L 9.171875 -1.46875 C 8.835938 -0.9375 8.363281 -0.523438 7.75 -0.234375 C 7.132812 0.0546875 6.4375 0.203125 5.65625 0.203125 C 4.300781 0.203125 3.28125 -0.15625 2.59375 -0.875 C 1.914062 -1.59375 1.578125 -2.628906 1.578125 -3.984375 L 1.578125 -11.46875 L 4.703125 -11.46875 L 4.703125 -4.765625 C 4.703125 -3.941406 4.847656 -3.320312 5.140625 -2.90625 C 5.441406 -2.488281 5.910156 -2.28125 6.546875 -2.28125 C 7.421875 -2.28125 8.050781 -2.570312 8.4375 -3.15625 C 8.832031 -3.75 9.03125 -4.722656 9.03125 -6.078125 L 9.03125 -11.46875 L 12.15625 -11.46875 L 12.15625 0 Z M 9.765625 0 "/></g></g><g transform="translate(223.717161, 169.699983)"><g><path d="M 9.640625 -3.40625 C 9.640625 -2.226562 9.226562 -1.332031 8.40625 -0.71875 C 7.59375 -0.101562 6.375 0.203125 4.75 0.203125 C 3.914062 0.203125 3.203125 0.144531 2.609375 0.03125 C 2.023438 -0.0820312 1.476562 -0.25 0.96875 -0.46875 L 0.96875 -3.046875 C 1.539062 -2.773438 2.191406 -2.546875 2.921875 -2.359375 C 3.648438 -2.171875 4.289062 -2.078125 4.84375 -2.078125 C 5.976562 -2.078125 6.546875 -2.40625 6.546875 -3.0625 C 6.546875 -3.3125 6.46875 -3.507812 6.3125 -3.65625 C 6.164062 -3.8125 5.910156 -3.988281 5.546875 -4.1875 C 5.179688 -4.382812 4.691406 -4.613281 4.078125 -4.875 C 3.191406 -5.238281 2.539062 -5.578125 2.125 -5.890625 C 1.707031 -6.210938 1.40625 -6.578125 1.21875 -6.984375 C 1.03125 -7.390625 0.9375 -7.890625 0.9375 -8.484375 C 0.9375 -9.503906 1.332031 -10.289062 2.125 -10.84375 C 2.914062 -11.394531 4.035156 -11.671875 5.484375 -11.671875 C 6.867188 -11.671875 8.210938 -11.375 9.515625 -10.78125 L 8.578125 -8.515625 C 8.003906 -8.765625 7.46875 -8.96875 6.96875 -9.125 C 6.46875 -9.28125 5.957031 -9.359375 5.4375 -9.359375 C 4.507812 -9.359375 4.046875 -9.109375 4.046875 -8.609375 C 4.046875 -8.328125 4.191406 -8.082031 4.484375 -7.875 C 4.785156 -7.675781 5.441406 -7.375 6.453125 -6.96875 C 7.347656 -6.601562 8.003906 -6.265625 8.421875 -5.953125 C 8.835938 -5.640625 9.144531 -5.273438 9.34375 -4.859375 C 9.539062 -4.453125 9.640625 -3.96875 9.640625 -3.40625 Z M 9.640625 -3.40625 "/></g></g><g transform="translate(234.155637, 169.699983)"><g><path d="M 6.46875 -2.28125 C 7.019531 -2.28125 7.675781 -2.398438 8.4375 -2.640625 L 8.4375 -0.3125 C 7.65625 0.03125 6.695312 0.203125 5.5625 0.203125 C 4.3125 0.203125 3.398438 -0.109375 2.828125 -0.734375 C 2.265625 -1.367188 1.984375 -2.320312 1.984375 -3.59375 L 1.984375 -9.109375 L 0.484375 -9.109375 L 0.484375 -10.4375 L 2.203125 -11.484375 L 3.109375 -13.90625 L 5.109375 -13.90625 L 5.109375 -11.46875 L 8.3125 -11.46875 L 8.3125 -9.109375 L 5.109375 -9.109375 L 5.109375 -3.59375 C 5.109375 -3.144531 5.234375 -2.8125 5.484375 -2.59375 C 5.734375 -2.382812 6.0625 -2.28125 6.46875 -2.28125 Z M 6.46875 -2.28125 "/></g></g><g transform="translate(243.271359, 169.699983)"><g><path d="M 4.125 -5.75 C 4.125 -4.613281 4.3125 -3.753906 4.6875 -3.171875 C 5.0625 -2.597656 5.671875 -2.3125 6.515625 -2.3125 C 7.347656 -2.3125 7.945312 -2.597656 8.3125 -3.171875 C 8.675781 -3.753906 8.859375 -4.613281 8.859375 -5.75 C 8.859375 -6.882812 8.671875 -7.734375 8.296875 -8.296875 C 7.929688 -8.867188 7.328125 -9.15625 6.484375 -9.15625 C 5.648438 -9.15625 5.046875 -8.875 4.671875 -8.3125 C 4.304688 -7.75 4.125 -6.894531 4.125 -5.75 Z M 12.0625 -5.75 C 12.0625 -3.882812 11.566406 -2.425781 10.578125 -1.375 C 9.597656 -0.320312 8.226562 0.203125 6.46875 0.203125 C 5.363281 0.203125 4.390625 -0.0351562 3.546875 -0.515625 C 2.710938 -0.992188 2.066406 -1.6875 1.609375 -2.59375 C 1.160156 -3.5 0.9375 -4.550781 0.9375 -5.75 C 0.9375 -7.625 1.425781 -9.078125 2.40625 -10.109375 C 3.382812 -11.148438 4.757812 -11.671875 6.53125 -11.671875 C 7.632812 -11.671875 8.601562 -11.429688 9.4375 -10.953125 C 10.28125 -10.484375 10.925781 -9.800781 11.375 -8.90625 C 11.832031 -8.007812 12.0625 -6.957031 12.0625 -5.75 Z M 12.0625 -5.75 "/></g></g></g><g fill="#ffffff" fill-opacity="1"><g transform="translate(138.757694, 198.949981)"><g><path d="M 1.890625 -14.984375 L 6.546875 -14.984375 C 8.671875 -14.984375 10.210938 -14.679688 11.171875 -14.078125 C 12.140625 -13.472656 12.625 -12.515625 12.625 -11.203125 C 12.625 -10.304688 12.410156 -9.566406 11.984375 -8.984375 C 11.566406 -8.410156 11.007812 -8.066406 10.3125 -7.953125 L 10.3125 -7.859375 C 11.257812 -7.640625 11.941406 -7.238281 12.359375 -6.65625 C 12.785156 -6.082031 13 -5.3125 13 -4.34375 C 13 -2.976562 12.503906 -1.910156 11.515625 -1.140625 C 10.523438 -0.378906 9.1875 0 7.5 0 L 1.890625 0 Z M 5.0625 -9.046875 L 6.90625 -9.046875 C 7.769531 -9.046875 8.394531 -9.179688 8.78125 -9.453125 C 9.164062 -9.722656 9.359375 -10.164062 9.359375 -10.78125 C 9.359375 -11.351562 9.144531 -11.765625 8.71875 -12.015625 C 8.300781 -12.265625 7.640625 -12.390625 6.734375 -12.390625 L 5.0625 -12.390625 Z M 5.0625 -6.53125 L 5.0625 -2.625 L 7.140625 -2.625 C 8.015625 -2.625 8.660156 -2.789062 9.078125 -3.125 C 9.492188 -3.457031 9.703125 -3.972656 9.703125 -4.671875 C 9.703125 -5.910156 8.8125 -6.53125 7.03125 -6.53125 Z M 5.0625 -6.53125 "/></g></g><g transform="translate(152.867068, 198.949981)"><g><path d="M 6.390625 -9.453125 C 5.722656 -9.453125 5.203125 -9.238281 4.828125 -8.8125 C 4.453125 -8.394531 4.238281 -7.800781 4.1875 -7.03125 L 8.578125 -7.03125 C 8.554688 -7.800781 8.351562 -8.394531 7.96875 -8.8125 C 7.582031 -9.238281 7.054688 -9.453125 6.390625 -9.453125 Z M 6.828125 0.203125 C 4.984375 0.203125 3.539062 -0.300781 2.5 -1.3125 C 1.457031 -2.332031 0.9375 -3.78125 0.9375 -5.65625 C 0.9375 -7.570312 1.414062 -9.050781 2.375 -10.09375 C 3.34375 -11.144531 4.675781 -11.671875 6.375 -11.671875 C 7.988281 -11.671875 9.242188 -11.207031 10.140625 -10.28125 C 11.046875 -9.363281 11.5 -8.09375 11.5 -6.46875 L 11.5 -4.953125 L 4.109375 -4.953125 C 4.140625 -4.066406 4.398438 -3.375 4.890625 -2.875 C 5.390625 -2.375 6.082031 -2.125 6.96875 -2.125 C 7.664062 -2.125 8.320312 -2.191406 8.9375 -2.328125 C 9.550781 -2.472656 10.191406 -2.707031 10.859375 -3.03125 L 10.859375 -0.609375 C 10.304688 -0.328125 9.71875 -0.125 9.09375 0 C 8.476562 0.132812 7.722656 0.203125 6.828125 0.203125 Z M 6.828125 0.203125 "/></g></g><g transform="translate(165.274294, 198.949981)"><g><path d="M 12.21875 0 L 9.09375 0 L 9.09375 -6.703125 C 9.09375 -7.523438 8.945312 -8.140625 8.65625 -8.546875 C 8.363281 -8.960938 7.894531 -9.171875 7.25 -9.171875 C 6.375 -9.171875 5.738281 -8.878906 5.34375 -8.296875 C 4.957031 -7.710938 4.765625 -6.742188 4.765625 -5.390625 L 4.765625 0 L 1.640625 0 L 1.640625 -11.46875 L 4.03125 -11.46875 L 4.453125 -10 L 4.625 -10 C 4.96875 -10.550781 5.445312 -10.96875 6.0625 -11.25 C 6.675781 -11.53125 7.375 -11.671875 8.15625 -11.671875 C 9.488281 -11.671875 10.5 -11.3125 11.1875 -10.59375 C 11.875 -9.875 12.21875 -8.832031 12.21875 -7.46875 Z M 12.21875 0 "/></g></g><g transform="translate(179.076051, 198.949981)"><g><path d="M 6.390625 -9.453125 C 5.722656 -9.453125 5.203125 -9.238281 4.828125 -8.8125 C 4.453125 -8.394531 4.238281 -7.800781 4.1875 -7.03125 L 8.578125 -7.03125 C 8.554688 -7.800781 8.351562 -8.394531 7.96875 -8.8125 C 7.582031 -9.238281 7.054688 -9.453125 6.390625 -9.453125 Z M 6.828125 0.203125 C 4.984375 0.203125 3.539062 -0.300781 2.5 -1.3125 C 1.457031 -2.332031 0.9375 -3.78125 0.9375 -5.65625 C 0.9375 -7.570312 1.414062 -9.050781 2.375 -10.09375 C 3.34375 -11.144531 4.675781 -11.671875 6.375 -11.671875 C 7.988281 -11.671875 9.242188 -11.207031 10.140625 -10.28125 C 11.046875 -9.363281 11.5 -8.09375 11.5 -6.46875 L 11.5 -4.953125 L 4.109375 -4.953125 C 4.140625 -4.066406 4.398438 -3.375 4.890625 -2.875 C 5.390625 -2.375 6.082031 -2.125 6.96875 -2.125 C 7.664062 -2.125 8.320312 -2.191406 8.9375 -2.328125 C 9.550781 -2.472656 10.191406 -2.707031 10.859375 -3.03125 L 10.859375 -0.609375 C 10.304688 -0.328125 9.71875 -0.125 9.09375 0 C 8.476562 0.132812 7.722656 0.203125 6.828125 0.203125 Z M 6.828125 0.203125 "/></g></g><g transform="translate(191.483276, 198.949981)"><g><path d="M 7.984375 -9.109375 L 5.265625 -9.109375 L 5.265625 0 L 2.140625 0 L 2.140625 -9.109375 L 0.421875 -9.109375 L 0.421875 -10.625 L 2.140625 -11.46875 L 2.140625 -12.3125 C 2.140625 -13.613281 2.460938 -14.5625 3.109375 -15.15625 C 3.753906 -15.757812 4.78125 -16.0625 6.1875 -16.0625 C 7.269531 -16.0625 8.234375 -15.90625 9.078125 -15.59375 L 8.28125 -13.296875 C 7.644531 -13.492188 7.0625 -13.59375 6.53125 -13.59375 C 6.082031 -13.59375 5.757812 -13.457031 5.5625 -13.1875 C 5.363281 -12.925781 5.265625 -12.59375 5.265625 -12.1875 L 5.265625 -11.46875 L 7.984375 -11.46875 Z M 7.984375 -9.109375 "/></g></g><g transform="translate(199.614623, 198.949981)"><g><path d="M 4.765625 0 L 1.640625 0 L 1.640625 -11.46875 L 4.765625 -11.46875 Z M 1.484375 -12.71875 L 1.484375 -13 C 2.660156 -14.363281 3.460938 -15.394531 3.890625 -16.09375 L 7.40625 -16.09375 L 7.40625 -15.875 C 7.039062 -15.519531 6.429688 -14.988281 5.578125 -14.28125 C 4.722656 -13.582031 4.050781 -13.0625 3.5625 -12.71875 Z M 1.484375 -12.71875 "/></g></g><g transform="translate(206.023314, 198.949981)"><g><path d="M 6.296875 0.203125 C 2.722656 0.203125 0.9375 -1.753906 0.9375 -5.671875 C 0.9375 -7.617188 1.421875 -9.101562 2.390625 -10.125 C 3.367188 -11.15625 4.765625 -11.671875 6.578125 -11.671875 C 7.898438 -11.671875 9.085938 -11.414062 10.140625 -10.90625 L 9.21875 -8.484375 C 8.726562 -8.679688 8.269531 -8.84375 7.84375 -8.96875 C 7.414062 -9.09375 6.992188 -9.15625 6.578125 -9.15625 C 4.941406 -9.15625 4.125 -8 4.125 -5.6875 C 4.125 -3.445312 4.941406 -2.328125 6.578125 -2.328125 C 7.171875 -2.328125 7.722656 -2.40625 8.234375 -2.5625 C 8.753906 -2.726562 9.269531 -2.984375 9.78125 -3.328125 L 9.78125 -0.640625 C 9.28125 -0.328125 8.769531 -0.109375 8.25 0.015625 C 7.726562 0.140625 7.078125 0.203125 6.296875 0.203125 Z M 6.296875 0.203125 "/></g></g><g transform="translate(216.820677, 198.949981)"><g><path d="M 1.5 -14.421875 C 1.5 -15.441406 2.066406 -15.953125 3.203125 -15.953125 C 4.335938 -15.953125 4.90625 -15.441406 4.90625 -14.421875 C 4.90625 -13.941406 4.765625 -13.566406 4.484375 -13.296875 C 4.203125 -13.023438 3.773438 -12.890625 3.203125 -12.890625 C 2.066406 -12.890625 1.5 -13.398438 1.5 -14.421875 Z M 4.765625 0 L 1.640625 0 L 1.640625 -11.46875 L 4.765625 -11.46875 Z M 4.765625 0 "/></g></g><g transform="translate(223.229368, 198.949981)"><g><path d="M 4.125 -5.75 C 4.125 -4.613281 4.3125 -3.753906 4.6875 -3.171875 C 5.0625 -2.597656 5.671875 -2.3125 6.515625 -2.3125 C 7.347656 -2.3125 7.945312 -2.597656 8.3125 -3.171875 C 8.675781 -3.753906 8.859375 -4.613281 8.859375 -5.75 C 8.859375 -6.882812 8.671875 -7.734375 8.296875 -8.296875 C 7.929688 -8.867188 7.328125 -9.15625 6.484375 -9.15625 C 5.648438 -9.15625 5.046875 -8.875 4.671875 -8.3125 C 4.304688 -7.75 4.125 -6.894531 4.125 -5.75 Z M 12.0625 -5.75 C 12.0625 -3.882812 11.566406 -2.425781 10.578125 -1.375 C 9.597656 -0.320312 8.226562 0.203125 6.46875 0.203125 C 5.363281 0.203125 4.390625 -0.0351562 3.546875 -0.515625 C 2.710938 -0.992188 2.066406 -1.6875 1.609375 -2.59375 C 1.160156 -3.5 0.9375 -4.550781 0.9375 -5.75 C 0.9375 -7.625 1.425781 -9.078125 2.40625 -10.109375 C 3.382812 -11.148438 4.757812 -11.671875 6.53125 -11.671875 C 7.632812 -11.671875 8.601562 -11.429688 9.4375 -10.953125 C 10.28125 -10.484375 10.925781 -9.800781 11.375 -8.90625 C 11.832031 -8.007812 12.0625 -6.957031 12.0625 -5.75 Z M 12.0625 -5.75 "/></g></g></g></svg>